<svg width="90" height="61" viewBox="0 0 90 61" fill="none" xmlns="http://www.w3.org/2000/svg">
<path d="M39.6197 0.594574L6.16317 0.47133C5.10048 0.467315 4.05557 0.740667 3.13333 1.26387C2.2111 1.78718 1.44421 2.54186 0.909756 3.4521C0.375299 4.36244 0.0920923 5.3961 0.0887126 6.4493C0.085333 7.50249 0.361719 8.53802 0.890356 9.45177L23.2167 48.1057C23.7445 49.0196 24.5056 49.7797 25.4237 50.3097C26.3419 50.8397 27.3845 51.1207 28.447 51.1247C29.5094 51.1286 30.5542 50.8552 31.4762 50.332C32.3982 49.8088 33.165 49.0543 33.6993 48.1443L39.4809 38.2964L50.6424 57.6363C51.1705 58.5502 51.932 59.3102 52.8504 59.8401C53.7688 60.3699 54.8117 60.651 55.8743 60.6549C56.9369 60.6588 57.9818 60.3855 58.9041 59.8624C59.8264 59.3393 60.5935 58.5849 61.1283 57.6749L89.2644 9.77731C89.7997 8.86748 90.0838 7.83402 90.0881 6.78083C90.0924 5.72764 89.8169 4.69192 89.2891 3.77767C88.7614 2.86352 88.0001 2.1032 87.0818 1.57312C86.1635 1.04313 85.1205 0.762086 84.0578 0.758272L63.0566 0.680909C54.7356 0.650257 48.5859 4.25013 44.3375 11.3019L34.0215 28.8596L28.496 38.256L12.1213 9.90994L34.091 9.99087L39.6197 0.594574ZM63.3643 10.1084L78.0205 10.1657L55.9119 47.7963L45.0193 28.9002L52.4053 16.3244C55.2263 11.7491 58.418 10.0902 63.3643 10.1084Z" fill="#8B5CF6"/>
</svg>
